{"title":"In.Time.2011.BRRip.XviD-RLF","uid":7005923,"size":741535880,"categoryP":"video","categoryS":"movies","magnet":"?xt=urn:btih:7204d564a0f50a87be18a68c5f0f8c21a8f0565c&amp;dn=In.Time.2011.BRRip.XviD-RLF&amp;tr=udp%3A%2F%2Ftracker.openbittorrent.com%3A80&amp;tr=udp%3A%2F%2Fopen.demonii.com%3A1337&amp;tr=udp%3A%2F%2Ftracker.coppersurfer.tk%3A6969&amp;tr=udp%3A%2F%2Fexodus.desync.com%3A6969","seeders":0,"leechers":1,"uploader":"rlf-rls","files":-1,"time":1328267213,"description":"In.Time.2011.BRRip.XviD-RLF\n~~~~~~~~~~~~~~~~~~~~~~~~~~~\n\n\nGENERAL:\n\nComplete name            : rlf-time.avi\nFormat                   : AVI\nFormat/Info              : Audio Video Interleave\nFile size                : 695 MiB\nDuration                 : 1h 49mn\nOverall bit rate         : 889 Kbps\nLanguage                 : English\nSubs                     : Polish, English, Spanish\nEncoder                  : Ralf\n\nVideo:\n\nFormat                   : MPEG-4 Visual\nFormat profile           : Advanced Simple@L5\nFormat settings, BVOP    : 2\nFormat settings, QPel    : No\nFormat settings, GMC     : No warppoints\nFormat settings, Matrix  : H.263\nMuxing mode              : Packed bitstream\nCodec ID                 : XVID\nDuration                 : 1h 49mn\nBit rate                 : 765 Kbps\nWidth                    : 688 pixels\nHeight                   : 288 pixels\nDisplay aspect ratio     : 2.35:1\nFrame rate               : 23.976 fps\nColor space              : YUV\nChroma subsampling       : 4:2:0\nBit depth                : 8 bits\nScan type                : Progressive\nBits/(Pixel*Frame)       : 0.161\nStream size              : 598 MiB (86%)\nStream size              : Xvid 63\n\nAudio:\n\nFormat                   : MPEG Audio\nFormat profile           : Layer 3\nCodec ID/Hint            : MP3\nDuration                 : 1h 49mn\nBit rate mode            : Constant\nBit rate                 : 112 Kbps\nChannel(s)               : 2 channels\nSampling rate            : 48.0 KHz\nStream size              : 87.5 MiB (13%)\nAlignment                : Split accross interleaves\nInterleave, duration     : 24 ms (0.58 video frame)\n\nMOVIE INFO:\n\nIn a future where people stop aging at 25, but are engineered to\nlive only one more year, having the means to buy your way out of\nthe situation is a shot at immortal youth. Here, Will Salas finds\nhimself accused of murder and on the run with a hostage a connection\nthat becomes an important part of the way against the system.\n &lt;a href=&quot;\nhttp://www.imdb.com/title/tt1637688/&quot; rel=&quot;nofollow&quot; target=&quot;_NEW&quot;&gt;\nhttp://www.imdb.com/title/tt1637688/&lt;/a&gt; &lt;a href=&quot;\nhttp://www.filmweb.pl/film/WyÃ…Â¥cig+z+czasem-2011-587175&quot; rel=&quot;nofollow&quot; target=&quot;_NEW&quot;&gt;\nhttp://www.filmweb.pl/film/WyÃ…Â¥cig+z+czasem-2011-587175&lt;/a&gt;\n\nSOURCE:\n\nAMIABLE's 720p.BluRay.x264 (THX)\n\nSCREENS:\n &lt;a href=&quot;\nhttp://www.postimg.com/59000/photo-58952.jpg&quot; rel=&quot;nofollow&quot; target=&quot;_NEW&quot;&gt;\nhttp://www.postimg.com/59000/photo-58952.jpg&lt;/a&gt; &lt;a href=&quot;\nhttp://www.postimg.com/59000/photo-58953.jpg&quot; rel=&quot;nofollow&quot; target=&quot;_NEW&quot;&gt;\nhttp://www.postimg.com/59000/photo-58953.jpg&lt;/a&gt; &lt;a href=&quot;\nhttp://www.postimg.com/59000/photo-58954.jpg&quot; rel=&quot;nofollow&quot; target=&quot;_NEW&quot;&gt;\nhttp://www.postimg.com/59000/photo-58954.jpg&lt;/a&gt; &lt;a href=&quot;\nhttp://www.postimg.com/59000/photo-58955.jpg&quot; rel=&quot;nofollow&quot; target=&quot;_NEW&quot;&gt;\nhttp://www.postimg.com/59000/photo-58955.jpg&lt;/a&gt;","torrent":{"xt":"urn:btih:7204d564a0f50a87be18a68c5f0f8c21a8f0565c","amp;dn":"In.Time.2011.BRRip.XviD-RLF","amp;tr":["udp%3A%2F%2Ftracker.openbittorrent.com%3A80","udp%3A%2F%2Fopen.demonii.com%3A1337","udp%3A%2F%2Ftracker.coppersurfer.tk%3A6969","udp%3A%2F%2Fexodus.desync.com%3A6969"],"infoHash":"7204d564a0f50a87be18a68c5f0f8c21a8f0565c","infoHashBuffer":{"type":"Buffer","data":[114,4,213,100,160,245,10,135,190,24,166,140,95,15,140,33,168,240,86,92]},"announce":[],"urlList":[]}}